<?xml version="1.0" standalone="no"?>
<!DOCTYPE svg PUBLIC "-//W3C//DTD SVG 20010904//EN"
 "http://www.w3.org/TR/2001/REC-SVG-20010904/DTD/svg10.dtd">
<svg version="1.0" xmlns="http://www.w3.org/2000/svg"
 width="256.000000pt" height="256.000000pt" viewBox="0 0 256.000000 256.000000"
 preserveAspectRatio="xMidYMid meet">
<metadata>
Created by potrace 1.11, written by Peter Selinger 2001-2013
</metadata>
<g transform="translate(0.000000,256.000000) scale(0.100000,-0.100000)"
fill="#000000" stroke="none">
<path d="M1518 2545 c-59 -22 -140 -78 -185 -129 -24 -27 -43 -52 -43 -57 0
-17 -19 -9 -25 11 -8 24 -54 50 -91 50 -66 0 -127 -74 -126 -152 1 -41 18
-105 34 -124 6 -8 -8 -22 -44 -43 l-53 -30 -6 47 c-17 130 -111 215 -240 216
-110 0 -194 -63 -225 -171 -39 -136 39 -270 177 -303 27 -7 59 -10 69 -7 20 5
20 4 2 -21 -53 -79 -90 -199 -101 -328 -1 -7 -13 -15 -29 -19 -71 -17 -177
-82 -243 -147 -282 -280 -234 -741 101 -957 35 -23 93 -50 130 -62 l67 -22 -2
-76 c-1 -71 -3 -78 -33 -108 -18 -17 -32 -40 -32 -50 0 -17 10 -19 100 -20 55
-1 100 2 100 7 0 21 -25 61 -47 75 -21 14 -23 22 -21 88 l2 72 90 0 89 0 -2
-72 c-2 -66 -5 -76 -32 -102 -16 -16 -29 -38 -29 -49 0 -17 8 -19 83 -20 112
-1 118 1 105 39 -6 17 -21 35 -34 41 -23 11 -24 16 -24 100 l0 89 31 11 c92
32 206 116 272 199 42 53 107 176 107 202 0 13 9 17 38 18 95 2 248 53 335
113 21 14 41 26 45 26 5 0 9 -41 11 -92 1 -50 4 -95 7 -100 6 -9 -17 -11 -116
-10 -73 1 -88 -7 -84 -46 1 -15 5 -72 9 -127 3 -55 7 -122 9 -150 3 -27 7 -99
11 -160 9 -151 11 -171 19 -184 5 -7 66 -11 192 -11 168 0 184 1 185 18 0 9 2
35 4 57 2 22 6 81 9 130 3 50 9 135 13 190 3 55 7 141 7 190 l1 90 -108 1
c-59 1 -109 3 -112 6 -3 2 -7 56 -9 118 l-4 114 51 57 c154 171 219 389 182
619 -6 39 -28 114 -51 173 -6 17 -2 18 36 12 92 -14 201 49 245 141 23 49 23
145 0 199 -24 54 -88 112 -144 129 -96 28 -189 1 -254 -74 -33 -39 -65 -119
-58 -149 2 -12 -2 -11 -21 2 -12 10 -40 29 -61 42 l-38 26 49 39 c120 94 148
212 70 287 -25 24 -38 28 -89 29 -32 1 -65 2 -73 3 -8 0 -23 21 -35 46 -30 64
-81 80 -163 50z"/>
</g>
</svg>
